0
SECTION
2
HEADER
9
$ACADVER
1
AC1009
9
$INSUNITS
70
5
0
ENDSEC
0
SECTION
2
TABLES
0
TABLE
2
LAYER
70
9
0
LAYER
2
A-SITE
70
0
62
7
6
CONTINUOUS
0
LAYER
2
A-WALL
70
0
62
1
6
CONTINUOUS
0
LAYER
2
A-DOOR
70
0
62
3
6
CONTINUOUS
0
LAYER
2
A-WINDOW
70
0
62
5
6
CONTINUOUS
0
LAYER
2
A-ANNO-TEXT
70
0
62
6
6
CONTINUOUS
0
LAYER
2
A-DIMS
70
0
62
2
6
CONTINUOUS
0
LAYER
2
A-HATCH
70
0
62
8
6
CONTINUOUS
0
LAYER
2
A-FIXTURE
70
0
62
4
6
CONTINUOUS
0
LAYER
2
A-PARKING
70
0
62
9
6
CONTINUOUS
0
ENDTAB
0
ENDSEC
0
SECTION
2
ENTITIES
0
LINE
8
A-HATCH
10
0
20
4430
30
0
11
170
21
170
31
0
0
LINE
8
A-HATCH
10
0
20
4260
30
0
11
340
21
340
31
0
0
LINE
8
A-HATCH
10
0
20
4090
30
0
11
510
21
510
31
0
0
LINE
8
A-HATCH
10
0
20
3920
30
0
11
680
21
680
31
0
0
LINE
8
A-HATCH
10
0
20
3750
30
0
11
850
21
850
31
0
0
LINE
8
A-HATCH
10
0
20
3580
30
0
11
1020
21
1020
31
0
0
LINE
8
A-HATCH
10
0
20
3410
30
0
11
1190
21
1190
31
0
0
LINE
8
A-HATCH
10
0
20
3240
30
0
11
1360
21
1360
31
0
0
LINE
8
A-HATCH
10
0
20
3070
30
0
11
1530
21
1530
31
0
0
LINE
8
A-HATCH
10
0
20
2900
30
0
11
1700
21
1700
31
0
0
LINE
8
A-HATCH
10
0
20
2730
30
0
11
1870
21
1870
31
0
0
LINE
8
A-HATCH
10
0
20
2560
30
0
11
2040
21
2040
31
0
0
LINE
8
A-HATCH
10
0
20
2390
30
0
11
2210
21
2210
31
0
0
LINE
8
A-HATCH
10
0
20
2220
30
0
11
2380
21
2380
31
0
0
LINE
8
A-HATCH
10
0
20
2050
30
0
11
2550
21
2550
31
0
0
LINE
8
A-HATCH
10
0
20
1880
30
0
11
2720
21
2720
31
0
0
LINE
8
A-HATCH
10
0
20
1710
30
0
11
2890
21
2890
31
0
0
LINE
8
A-HATCH
10
0
20
1540
30
0
11
3060
21
3060
31
0
0
LINE
8
A-HATCH
10
0
20
1370
30
0
11
3230
21
3230
31
0
0
LINE
8
A-HATCH
10
0
20
1200
30
0
11
3400
21
3400
31
0
0
LINE
8
A-HATCH
10
0
20
1030
30
0
11
3570
21
3570
31
0
0
LINE
8
A-HATCH
10
0
20
860
30
0
11
3740
21
3740
31
0
0
LINE
8
A-HATCH
10
0
20
690
30
0
11
3910
21
3910
31
0
0
LINE
8
A-HATCH
10
0
20
520
30
0
11
4080
21
4080
31
0
0
LINE
8
A-HATCH
10
0
20
350
30
0
11
4250
21
4250
31
0
0
LINE
8
A-HATCH
10
0
20
180
30
0
11
4420
21
4420
31
0
0
LINE
8
A-HATCH
10
0
20
10
30
0
11
4590
21
4590
31
0
0
LINE
8
A-HATCH
10
160
20
0
30
0
11
4760
21
4600
31
0
0
LINE
8
A-HATCH
10
330
20
0
30
0
11
4800
21
4600
31
0
0
LINE
8
A-HATCH
10
500
20
0
30
0
11
4800
21
4600
31
0
0
LINE
8
A-HATCH
10
670
20
0
30
0
11
4800
21
4600
31
0
0
LINE
8
A-HATCH
10
840
20
0
30
0
11
4800
21
4600
31
0
0
LINE
8
A-HATCH
10
1010
20
0
30
0
11
4800
21
4600
31
0
0
LINE
8
A-HATCH
10
1180
20
0
30
0
11
4800
21
4600
31
0
0
LINE
8
A-HATCH
10
1350
20
0
30
0
11
4800
21
4600
31
0
0
LINE
8
A-HATCH
10
1520
20
0
30
0
11
4800
21
4600
31
0
0
LINE
8
A-HATCH
10
1690
20
0
30
0
11
4800
21
4600
31
0
0
LINE
8
A-HATCH
10
1860
20
0
30
0
11
4800
21
4600
31
0
0
LINE
8
A-HATCH
10
2030
20
0
30
0
11
4800
21
4600
31
0
0
LINE
8
A-HATCH
10
2200
20
0
30
0
11
4800
21
4600
31
0
0
LINE
8
A-HATCH
10
2370
20
0
30
0
11
4800
21
4600
31
0
0
LINE
8
A-HATCH
10
2540
20
0
30
0
11
4800
21
4600
31
0
0
LINE
8
A-HATCH
10
2710
20
0
30
0
11
4800
21
4600
31
0
0
LINE
8
A-HATCH
10
2880
20
0
30
0
11
4800
21
4600
31
0
0
LINE
8
A-HATCH
10
3050
20
0
30
0
11
4800
21
4600
31
0
0
LINE
8
A-HATCH
10
3220
20
0
30
0
11
4800
21
4600
31
0
0
LINE
8
A-HATCH
10
3390
20
0
30
0
11
4800
21
4600
31
0
0
LINE
8
A-HATCH
10
3560
20
0
30
0
11
4800
21
4600
31
0
0
LINE
8
A-HATCH
10
3730
20
0
30
0
11
4800
21
4600
31
0
0
LINE
8
A-HATCH
10
3900
20
0
30
0
11
4800
21
4600
31
0
0
LINE
8
A-HATCH
10
4070
20
0
30
0
11
4800
21
4600
31
0
0
LINE
8
A-HATCH
10
4240
20
0
30
0
11
4800
21
4600
31
0
0
LINE
8
A-HATCH
10
4410
20
0
30
0
11
4800
21
4600
31
0
0
LINE
8
A-HATCH
10
4580
20
0
30
0
11
4800
21
4600
31
0
0
LINE
8
A-HATCH
10
4750
20
0
30
0
11
4800
21
4600
31
0
0
LINE
8
A-HATCH
10
4920
20
0
30
0
11
4800
21
4600
31
0
0
LINE
8
A-SITE
10
0
20
0
30
0
11
4800
21
0
31
0
0
LINE
8
A-SITE
10
4800
20
0
30
0
11
4800
21
4600
31
0
0
LINE
8
A-SITE
10
4800
20
4600
30
0
11
0
21
4600
31
0
0
LINE
8
A-SITE
10
0
20
4600
30
0
11
0
21
0
31
0
0
TEXT
8
A-ANNO-TEXT
10
2400
20
4685
30
0
40
68
1
COMPOUND / SITE PLAN FROM PROVIDED SKETCH
50
0.0
7
STANDARD
72
1
11
2400
21
4685
31
0
0
LINE
8
A-SITE
10
4200
20
4100
30
0
11
4560
21
4100
31
0
0
LINE
8
A-SITE
10
4560
20
4100
30
0
11
4560
21
4360
31
0
0
LINE
8
A-SITE
10
4560
20
4360
30
0
11
4200
21
4360
31
0
0
LINE
8
A-SITE
10
4200
20
4360
30
0
11
4200
21
4100
31
0
0
TEXT
8
A-ANNO-TEXT
10
4380
20
4230
30
0
40
42
1
SECURITY / HOUSE
50
0.0
7
STANDARD
72
1
11
4380
21
4230
31
0
0
LINE
8
A-SITE
10
4700
20
2960
30
0
11
4700
21
4070
31
0
0
LINE
8
A-DOOR
10
4300
20
3480
30
0
11
4700
21
4020
31
0
6
DASHED
0
LINE
8
A-DOOR
10
4300
20
3480
30
0
11
4700
21
3020
31
0
6
DASHED
0
TEXT
8
A-ANNO-TEXT
10
4590
20
3560
30
0
40
70
1
GATE
50
90
7
STANDARD
72
1
11
4590
21
3560
31
0
0
LINE
8
A-PARKING
10
1900
20
2840
30
0
11
2850
21
2840
31
0
0
LINE
8
A-PARKING
10
2850
20
2840
30
0
11
2850
21
4060
31
0
0
LINE
8
A-PARKING
10
2850
20
4060
30
0
11
1900
21
4060
31
0
0
LINE
8
A-PARKING
10
1900
20
4060
30
0
11
1900
21
2840
31
0
0
TEXT
8
A-ANNO-TEXT
10
2375
20
3450
30
0
40
78
1
PARKING / STRUCTURE
50
90
7
STANDARD
72
1
11
2375
21
3450
31
0
0
LINE
8
A-WALL
10
280
20
3330
30
0
11
1700
21
3330
31
0
0
LINE
8
A-WALL
10
1700
20
3330
30
0
11
1700
21
4260
31
0
0
LINE
8
A-WALL
10
1700
20
4260
30
0
11
280
21
4260
31
0
0
LINE
8
A-WALL
10
280
20
4260
30
0
11
280
21
3330
31
0
0
LINE
8
A-WALL
10
350
20
3890
30
0
11
710
21
3890
31
0
0
LINE
8
A-WALL
10
710
20
3890
30
0
11
710
21
4170
31
0
0
LINE
8
A-WALL
10
710
20
4170
30
0
11
350
21
4170
31
0
0
LINE
8
A-WALL
10
350
20
4170
30
0
11
350
21
3890
31
0
0
TEXT
8
A-ANNO-TEXT
10
530.0
20
4030.0
30
0
40
36
1
OUTSIDE / TOILET
50
0.0
7
STANDARD
72
1
11
530.0
21
4030.0
31
0
0
LINE
8
A-WALL
10
700
20
3330
30
0
11
910
21
3330
31
0
0
LINE
8
A-WALL
10
910
20
3330
30
0
11
910
21
4150
31
0
0
LINE
8
A-WALL
10
910
20
4150
30
0
11
700
21
4150
31
0
0
LINE
8
A-WALL
10
700
20
4150
30
0
11
700
21
3330
31
0
0
TEXT
8
A-ANNO-TEXT
10
805.0
20
3740.0
30
0
40
38
1
WASHROOM
50
0.0
7
STANDARD
72
1
11
805.0
21
3740.0
31
0
0
LINE
8
A-WALL
10
910
20
3330
30
0
11
1210
21
3330
31
0
0
LINE
8
A-WALL
10
1210
20
3330
30
0
11
1210
21
4150
31
0
0
LINE
8
A-WALL
10
1210
20
4150
30
0
11
910
21
4150
31
0
0
LINE
8
A-WALL
10
910
20
4150
30
0
11
910
21
3330
31
0
0
TEXT
8
A-ANNO-TEXT
10
1060.0
20
3740.0
30
0
40
43
1
BEDROOM
50
0.0
7
STANDARD
72
1
11
1060.0
21
3740.0
31
0
0
LINE
8
A-WALL
10
1210
20
3330
30
0
11
1530
21
3330
31
0
0
LINE
8
A-WALL
10
1530
20
3330
30
0
11
1530
21
4150
31
0
0
LINE
8
A-WALL
10
1530
20
4150
30
0
11
1210
21
4150
31
0
0
LINE
8
A-WALL
10
1210
20
4150
30
0
11
1210
21
3330
31
0
0
TEXT
8
A-ANNO-TEXT
10
1370.0
20
3740.0
30
0
40
43
1
SITTING / ROOM
50
0.0
7
STANDARD
72
1
11
1370.0
21
3740.0
31
0
0
LINE
8
A-WALL
10
1530
20
3330
30
0
11
1700
21
3330
31
0
0
LINE
8
A-WALL
10
1700
20
3330
30
0
11
1700
21
4150
31
0
0
LINE
8
A-WALL
10
1700
20
4150
30
0
11
1530
21
4150
31
0
0
LINE
8
A-WALL
10
1530
20
4150
30
0
11
1530
21
3330
31
0
0
TEXT
8
A-ANNO-TEXT
10
1615.0
20
3740.0
30
0
40
38
1
KITCHEN
50
0.0
7
STANDARD
72
1
11
1615.0
21
3740.0
31
0
0
LINE
8
A-DOOR
10
760
20
3330
30
0
11
845
21
3330
31
0
0
LINE
8
A-DOOR
10
760
20
3330
30
0
11
760
21
3415
31
0
0
ARC
8
A-DOOR
10
760
20
3330
30
0
40
85
50
0
51
90
0
LINE
8
A-DOOR
10
970
20
3330
30
0
11
1055
21
3330
31
0
0
LINE
8
A-DOOR
10
970
20
3330
30
0
11
970
21
3415
31
0
0
ARC
8
A-DOOR
10
970
20
3330
30
0
40
85
50
0
51
90
0
LINE
8
A-DOOR
10
1280
20
3330
30
0
11
1365
21
3330
31
0
0
LINE
8
A-DOOR
10
1280
20
3330
30
0
11
1280
21
3415
31
0
0
ARC
8
A-DOOR
10
1280
20
3330
30
0
40
85
50
0
51
90
0
LINE
8
A-DOOR
10
1570
20
3330
30
0
11
1655
21
3330
31
0
0
LINE
8
A-DOOR
10
1570
20
3330
30
0
11
1570
21
3415
31
0
0
ARC
8
A-DOOR
10
1570
20
3330
30
0
40
85
50
0
51
90
0
LINE
8
A-WINDOW
10
475
20
4260
30
0
11
600
21
4260
31
0
0
LINE
8
A-WINDOW
10
475
20
4278
30
0
11
600
21
4278
31
0
0
LINE
8
A-WINDOW
10
1550
20
4150
30
0
11
1680
21
4150
31
0
0
LINE
8
A-WINDOW
10
1550
20
4168
30
0
11
1680
21
4168
31
0
0
LINE
8
A-WALL
10
2100
20
450
30
0
11
3500
21
450
31
0
0
LINE
8
A-WALL
10
3500
20
450
30
0
11
3500
21
2000
31
0
0
LINE
8
A-WALL
10
3500
20
2000
30
0
11
2100
21
2000
31
0
0
LINE
8
A-WALL
10
2100
20
2000
30
0
11
2100
21
450
31
0
0
LINE
8
A-WALL
10
2100
20
450
30
0
11
2450
21
450
31
0
0
LINE
8
A-WALL
10
2450
20
450
30
0
11
2450
21
1010
31
0
0
LINE
8
A-WALL
10
2450
20
1010
30
0
11
2100
21
1010
31
0
0
LINE
8
A-WALL
10
2100
20
1010
30
0
11
2100
21
450
31
0
0
TEXT
8
A-ANNO-TEXT
10
2275.0
20
730.0
30
0
40
54
1
LAUNDRY
50
0.0
7
STANDARD
72
1
11
2275.0
21
730.0
31
0
0
LINE
8
A-WALL
10
2450
20
450
30
0
11
2810
21
450
31
0
0
LINE
8
A-WALL
10
2810
20
450
30
0
11
2810
21
1010
31
0
0
LINE
8
A-WALL
10
2810
20
1010
30
0
11
2450
21
1010
31
0
0
LINE
8
A-WALL
10
2450
20
1010
30
0
11
2450
21
450
31
0
0
TEXT
8
A-ANNO-TEXT
10
2630.0
20
730.0
30
0
40
55
1
KITCHEN
50
0.0
7
STANDARD
72
1
11
2630.0
21
730.0
31
0
0
LINE
8
A-WALL
10
2310
20
820
30
0
11
2485
21
820
31
0
0
LINE
8
A-WALL
10
2485
20
820
30
0
11
2485
21
995
31
0
0
LINE
8
A-WALL
10
2485
20
995
30
0
11
2310
21
995
31
0
0
LINE
8
A-WALL
10
2310
20
995
30
0
11
2310
21
820
31
0
0
TEXT
8
A-ANNO-TEXT
10
2397.5
20
907.5
30
0
40
31
1
KITCHEN / STORE
50
0.0
7
STANDARD
72
1
11
2397.5
21
907.5
31
0
0
LINE
8
A-WALL
10
2810
20
450
30
0
11
2990
21
450
31
0
0
LINE
8
A-WALL
10
2990
20
450
30
0
11
2990
21
750
31
0
0
LINE
8
A-WALL
10
2990
20
750
30
0
11
2810
21
750
31
0
0
LINE
8
A-WALL
10
2810
20
750
30
0
11
2810
21
450
31
0
0
TEXT
8
A-ANNO-TEXT
10
2900.0
20
600.0
30
0
40
31
1
WASHROOM
50
0.0
7
STANDARD
72
1
11
2900.0
21
600.0
31
0
0
LINE
8
A-WALL
10
2990
20
450
30
0
11
3170
21
450
31
0
0
LINE
8
A-WALL
10
3170
20
450
30
0
11
3170
21
750
31
0
0
LINE
8
A-WALL
10
3170
20
750
30
0
11
2990
21
750
31
0
0
LINE
8
A-WALL
10
2990
20
750
30
0
11
2990
21
450
31
0
0
TEXT
8
A-ANNO-TEXT
10
3080.0
20
600.0
30
0
40
31
1
WASHROOM
50
0.0
7
STANDARD
72
1
11
3080.0
21
600.0
31
0
0
LINE
8
A-WALL
10
3170
20
450
30
0
11
3500
21
450
31
0
0
LINE
8
A-WALL
10
3500
20
450
30
0
11
3500
21
750
31
0
0
LINE
8
A-WALL
10
3500
20
750
30
0
11
3170
21
750
31
0
0
LINE
8
A-WALL
10
3170
20
750
30
0
11
3170
21
450
31
0
0
TEXT
8
A-ANNO-TEXT
10
3335.0
20
600.0
30
0
40
55
1
RM 1
50
0.0
7
STANDARD
72
1
11
3335.0
21
600.0
31
0
0
LINE
8
A-WALL
10
2810
20
750
30
0
11
3500
21
750
31
0
0
LINE
8
A-WALL
10
3500
20
750
30
0
11
3500
21
1360
31
0
0
LINE
8
A-WALL
10
3500
20
1360
30
0
11
2810
21
1360
31
0
0
LINE
8
A-WALL
10
2810
20
1360
30
0
11
2810
21
750
31
0
0
TEXT
8
A-ANNO-TEXT
10
3155.0
20
1055.0
30
0
40
64
1
RM 2
50
0.0
7
STANDARD
72
1
11
3155.0
21
1055.0
31
0
0
LINE
8
A-WALL
10
2450
20
1010
30
0
11
2810
21
1010
31
0
0
LINE
8
A-WALL
10
2810
20
1010
30
0
11
2810
21
1360
31
0
0
LINE
8
A-WALL
10
2810
20
1360
30
0
11
2450
21
1360
31
0
0
LINE
8
A-WALL
10
2450
20
1360
30
0
11
2450
21
1010
31
0
0
TEXT
8
A-ANNO-TEXT
10
2630.0
20
1185.0
30
0
40
55
1
MAIN / HALL
50
0.0
7
STANDARD
72
1
11
2630.0
21
1185.0
31
0
0
LINE
8
A-WALL
10
2100
20
1360
30
0
11
2450
21
1360
31
0
0
LINE
8
A-WALL
10
2450
20
1360
30
0
11
2450
21
1530
31
0
0
LINE
8
A-WALL
10
2450
20
1530
30
0
11
2100
21
1530
31
0
0
LINE
8
A-WALL
10
2100
20
1530
30
0
11
2100
21
1360
31
0
0
TEXT
8
A-ANNO-TEXT
10
2275.0
20
1445.0
30
0
40
32
1
WASHROOM
50
0.0
7
STANDARD
72
1
11
2275.0
21
1445.0
31
0
0
LINE
8
A-WALL
10
2450
20
1360
30
0
11
3510
21
1360
31
0
0
LINE
8
A-WALL
10
3510
20
1360
30
0
11
3510
21
1530
31
0
0
LINE
8
A-WALL
10
3510
20
1530
30
0
11
2450
21
1530
31
0
0
LINE
8
A-WALL
10
2450
20
1530
30
0
11
2450
21
1360
31
0
0
TEXT
8
A-ANNO-TEXT
10
2980.0
20
1445.0
30
0
40
43
1
PASSAGE
50
0.0
7
STANDARD
72
1
11
2980.0
21
1445.0
31
0
0
LINE
8
A-WALL
10
2100
20
1530
30
0
11
2800
21
1530
31
0
0
LINE
8
A-WALL
10
2800
20
1530
30
0
11
2800
21
2000
31
0
0
LINE
8
A-WALL
10
2800
20
2000
30
0
11
2100
21
2000
31
0
0
LINE
8
A-WALL
10
2100
20
2000
30
0
11
2100
21
1530
31
0
0
TEXT
8
A-ANNO-TEXT
10
2450.0
20
1765.0
30
0
40
64
1
RM 4
50
0.0
7
STANDARD
72
1
11
2450.0
21
1765.0
31
0
0
LINE
8
A-WALL
10
2800
20
1530
30
0
11
2990
21
1530
31
0
0
LINE
8
A-WALL
10
2990
20
1530
30
0
11
2990
21
1750
31
0
0
LINE
8
A-WALL
10
2990
20
1750
30
0
11
2800
21
1750
31
0
0
LINE
8
A-WALL
10
2800
20
1750
30
0
11
2800
21
1530
31
0
0
TEXT
8
A-ANNO-TEXT
10
2895.0
20
1640.0
30
0
40
31
1
WASHROOM
50
0.0
7
STANDARD
72
1
11
2895.0
21
1640.0
31
0
0
LINE
8
A-WALL
10
2990
20
1530
30
0
11
3500
21
1530
31
0
0
LINE
8
A-WALL
10
3500
20
1530
30
0
11
3500
21
2000
31
0
0
LINE
8
A-WALL
10
3500
20
2000
30
0
11
2990
21
2000
31
0
0
LINE
8
A-WALL
10
2990
20
2000
30
0
11
2990
21
1530
31
0
0
TEXT
8
A-ANNO-TEXT
10
3245.0
20
1765.0
30
0
40
64
1
RM 3
50
0.0
7
STANDARD
72
1
11
3245.0
21
1765.0
31
0
0
TEXT
8
A-ANNO-TEXT
10
2630
20
1235
30
0
40
60
1
MAIN / HALL
50
0.0
7
STANDARD
72
1
11
2630
21
1235
31
0
0
TEXT
8
A-ANNO-TEXT
10
3485
20
1240
30
0
40
42
1
PASSAGE
50
90
7
STANDARD
72
1
11
3485
21
1240
31
0
0
LINE
8
A-SITE
10
3500
20
1120
30
0
11
3920
21
1120
31
0
0
LINE
8
A-SITE
10
3920
20
1120
30
0
11
3920
21
1480
31
0
0
LINE
8
A-SITE
10
3920
20
1480
30
0
11
3500
21
1480
31
0
0
LINE
8
A-SITE
10
3500
20
1480
30
0
11
3500
21
1120
31
0
0
TEXT
8
A-ANNO-TEXT
10
3710
20
1300
30
0
40
45
1
MAIN / ENTRANCE
50
0.0
7
STANDARD
72
1
11
3710
21
1300
31
0
0
LINE
8
A-SITE
10
3500
20
1120
30
0
11
3500
21
900
31
0
0
TEXT
8
A-ANNO-TEXT
10
3550
20
1000
30
0
40
39
1
PASSAGE
50
90
7
STANDARD
72
1
11
3550
21
1000
31
0
0
LINE
8
A-DOOR
10
3500
20
1230
30
0
11
3500
21
1350
31
0
0
LINE
8
A-DOOR
10
3500
20
1230
30
0
11
3380
21
1230
31
0
0
ARC
8
A-DOOR
10
3500
20
1230
30
0
40
120
50
90
51
180
0
LINE
8
A-DOOR
10
3170
20
750
30
0
11
3285
21
750
31
0
0
LINE
8
A-DOOR
10
3170
20
750
30
0
11
3170
21
865
31
0
0
ARC
8
A-DOOR
10
3170
20
750
30
0
40
115
50
0
51
90
0
LINE
8
A-DOOR
10
2990
20
750
30
0
11
3085
21
750
31
0
0
LINE
8
A-DOOR
10
2990
20
750
30
0
11
2990
21
845
31
0
0
ARC
8
A-DOOR
10
2990
20
750
30
0
40
95
50
0
51
90
0
LINE
8
A-DOOR
10
2810
20
750
30
0
11
2905
21
750
31
0
0
LINE
8
A-DOOR
10
2810
20
750
30
0
11
2810
21
845
31
0
0
ARC
8
A-DOOR
10
2810
20
750
30
0
40
95
50
0
51
90
0
LINE
8
A-DOOR
10
2450
20
1010
30
0
11
2560
21
1010
31
0
0
LINE
8
A-DOOR
10
2450
20
1010
30
0
11
2450
21
1120
31
0
0
ARC
8
A-DOOR
10
2450
20
1010
30
0
40
110
50
0
51
90
0
LINE
8
A-DOOR
10
2450
20
450
30
0
11
2550
21
450
31
0
0
LINE
8
A-DOOR
10
2450
20
450
30
0
11
2450
21
550
31
0
0
ARC
8
A-DOOR
10
2450
20
450
30
0
40
100
50
0
51
90
0
LINE
8
A-DOOR
10
2100
20
740
30
0
11
2100
21
840
31
0
0
LINE
8
A-DOOR
10
2100
20
740
30
0
11
2200
21
740
31
0
0
ARC
8
A-DOOR
10
2100
20
740
30
0
40
100
50
0
51
90
0
LINE
8
A-DOOR
10
2100
20
1450
30
0
11
2100
21
1540
31
0
0
LINE
8
A-DOOR
10
2100
20
1450
30
0
11
2190
21
1450
31
0
0
ARC
8
A-DOOR
10
2100
20
1450
30
0
40
90
50
0
51
90
0
LINE
8
A-DOOR
10
2450
20
1530
30
0
11
2570
21
1530
31
0
0
LINE
8
A-DOOR
10
2450
20
1530
30
0
11
2450
21
1650
31
0
0
ARC
8
A-DOOR
10
2450
20
1530
30
0
40
120
50
0
51
90
0
LINE
8
A-DOOR
10
2990
20
1530
30
0
11
3110
21
1530
31
0
0
LINE
8
A-DOOR
10
2990
20
1530
30
0
11
2990
21
1650
31
0
0
ARC
8
A-DOOR
10
2990
20
1530
30
0
40
120
50
0
51
90
0
LINE
8
A-DOOR
10
3180
20
1360
30
0
11
3290
21
1360
31
0
0
LINE
8
A-DOOR
10
3180
20
1360
30
0
11
3180
21
1470
31
0
0
ARC
8
A-DOOR
10
3180
20
1360
30
0
40
110
50
0
51
90
0
LINE
8
A-WINDOW
10
2210
20
2000
30
0
11
2440
21
2000
31
0
0
LINE
8
A-WINDOW
10
2210
20
2018
30
0
11
2440
21
2018
31
0
0
LINE
8
A-WINDOW
10
2550
20
2000
30
0
11
2750
21
2000
31
0
0
LINE
8
A-WINDOW
10
2550
20
2018
30
0
11
2750
21
2018
31
0
0
LINE
8
A-WINDOW
10
3060
20
2000
30
0
11
3320
21
2000
31
0
0
LINE
8
A-WINDOW
10
3060
20
2018
30
0
11
3320
21
2018
31
0
0
LINE
8
A-WINDOW
10
3500
20
1660
30
0
11
3500
21
1880
31
0
0
LINE
8
A-WINDOW
10
3518
20
1660
30
0
11
3518
21
1880
31
0
0
LINE
8
A-WINDOW
10
3500
20
810
30
0
11
3500
21
1000
31
0
0
LINE
8
A-WINDOW
10
3518
20
810
30
0
11
3518
21
1000
31
0
0
LINE
8
A-WINDOW
10
3200
20
450
30
0
11
3420
21
450
31
0
0
LINE
8
A-WINDOW
10
3200
20
468
30
0
11
3420
21
468
31
0
0
LINE
8
A-WINDOW
10
2500
20
450
30
0
11
2680
21
450
31
0
0
LINE
8
A-WINDOW
10
2500
20
468
30
0
11
2680
21
468
31
0
0
LINE
8
A-WINDOW
10
2100
20
520
30
0
11
2100
21
680
31
0
0
LINE
8
A-WINDOW
10
2118
20
520
30
0
11
2118
21
680
31
0
0
LINE
8
A-FIXTURE
10
2860
20
500
30
0
11
2932
21
500
31
0
0
LINE
8
A-FIXTURE
10
2932
20
500
30
0
11
2932
21
595
31
0
0
LINE
8
A-FIXTURE
10
2932
20
595
30
0
11
2860
21
595
31
0
0
LINE
8
A-FIXTURE
10
2860
20
595
30
0
11
2860
21
500
31
0
0
LINE
8
A-FIXTURE
10
2896
20
595
30
0
11
2896
21
705
31
0
0
LINE
8
A-FIXTURE
10
3040
20
500
30
0
11
3112
21
500
31
0
0
LINE
8
A-FIXTURE
10
3112
20
500
30
0
11
3112
21
595
31
0
0
LINE
8
A-FIXTURE
10
3112
20
595
30
0
11
3040
21
595
31
0
0
LINE
8
A-FIXTURE
10
3040
20
595
30
0
11
3040
21
500
31
0
0
LINE
8
A-FIXTURE
10
3076
20
595
30
0
11
3076
21
705
31
0
0
LINE
8
A-FIXTURE
10
2215
20
1410
30
0
11
2330
21
1410
31
0
0
LINE
8
A-FIXTURE
10
2330
20
1410
30
0
11
2330
21
1480
31
0
0
LINE
8
A-FIXTURE
10
2330
20
1480
30
0
11
2215
21
1480
31
0
0
LINE
8
A-FIXTURE
10
2215
20
1480
30
0
11
2215
21
1410
31
0
0
LINE
8
A-FIXTURE
10
2860
20
1585
30
0
11
2930
21
1585
31
0
0
LINE
8
A-FIXTURE
10
2930
20
1585
30
0
11
2930
21
1680
31
0
0
LINE
8
A-FIXTURE
10
2930
20
1680
30
0
11
2860
21
1680
31
0
0
LINE
8
A-FIXTURE
10
2860
20
1680
30
0
11
2860
21
1585
31
0
0
LINE
8
A-FIXTURE
10
2285
20
600
30
0
11
2385
21
600
31
0
0
LINE
8
A-FIXTURE
10
2385
20
600
30
0
11
2385
21
665
31
0
0
LINE
8
A-FIXTURE
10
2385
20
665
30
0
11
2285
21
665
31
0
0
LINE
8
A-FIXTURE
10
2285
20
665
30
0
11
2285
21
600
31
0
0
LINE
8
A-DIMS
10
0
20
-100
30
0
11
4800
21
-100
31
0
0
LINE
8
A-DIMS
10
0
20
-135
30
0
11
0
21
-65
31
0
0
LINE
8
A-DIMS
10
4800
20
-135
30
0
11
4800
21
-65
31
0
0
TEXT
8
A-DIMS
10
2400.0
20
-148
30
0
40
44
1
4800
50
0.0
7
STANDARD
72
1
11
2400.0
21
-148
31
0
0
LINE
8
A-DIMS
10
-110
20
0
30
0
11
-110
21
4600
31
0
0
LINE
8
A-DIMS
10
-145
20
0
30
0
11
-75
21
0
31
0
0
LINE
8
A-DIMS
10
-145
20
4600
30
0
11
-75
21
4600
31
0
0
TEXT
8
A-DIMS
10
-172
20
2300.0
30
0
40
44
1
4600
50
90
7
STANDARD
72
1
11
-172
21
2300.0
31
0
0
LINE
8
A-DIMS
10
2100
20
270
30
0
11
2450
21
270
31
0
0
LINE
8
A-DIMS
10
2100
20
235
30
0
11
2100
21
305
31
0
0
LINE
8
A-DIMS
10
2450
20
235
30
0
11
2450
21
305
31
0
0
TEXT
8
A-DIMS
10
2275.0
20
228
30
0
40
44
1
350
50
0.0
7
STANDARD
72
1
11
2275.0
21
228
31
0
0
LINE
8
A-DIMS
10
2450
20
270
30
0
11
2674
21
270
31
0
0
LINE
8
A-DIMS
10
2450
20
235
30
0
11
2450
21
305
31
0
0
LINE
8
A-DIMS
10
2674
20
235
30
0
11
2674
21
305
31
0
0
TEXT
8
A-DIMS
10
2562.0
20
228
30
0
40
44
1
224
50
0.0
7
STANDARD
72
1
11
2562.0
21
228
31
0
0
LINE
8
A-DIMS
10
2674
20
270
30
0
11
3074
21
270
31
0
0
LINE
8
A-DIMS
10
2674
20
235
30
0
11
2674
21
305
31
0
0
LINE
8
A-DIMS
10
3074
20
235
30
0
11
3074
21
305
31
0
0
TEXT
8
A-DIMS
10
2874.0
20
228
30
0
40
44
1
400
50
0.0
7
STANDARD
72
1
11
2874.0
21
228
31
0
0
LINE
8
A-DIMS
10
3074
20
270
30
0
11
3457
21
270
31
0
0
LINE
8
A-DIMS
10
3074
20
235
30
0
11
3074
21
305
31
0
0
LINE
8
A-DIMS
10
3457
20
235
30
0
11
3457
21
305
31
0
0
TEXT
8
A-DIMS
10
3265.5
20
228
30
0
40
44
1
383
50
0.0
7
STANDARD
72
1
11
3265.5
21
228
31
0
0
LINE
8
A-DIMS
10
3660
20
450
30
0
11
3660
21
710
31
0
0
LINE
8
A-DIMS
10
3625
20
450
30
0
11
3695
21
450
31
0
0
LINE
8
A-DIMS
10
3625
20
710
30
0
11
3695
21
710
31
0
0
TEXT
8
A-DIMS
10
3702
20
580.0
30
0
40
44
1
260
50
90
7
STANDARD
72
1
11
3702
21
580.0
31
0
0
LINE
8
A-DIMS
10
3660
20
710
30
0
11
3660
21
1104
31
0
0
LINE
8
A-DIMS
10
3625
20
710
30
0
11
3695
21
710
31
0
0
LINE
8
A-DIMS
10
3625
20
1104
30
0
11
3695
21
1104
31
0
0
TEXT
8
A-DIMS
10
3702
20
907.0
30
0
40
44
1
394
50
90
7
STANDARD
72
1
11
3702
21
907.0
31
0
0
LINE
8
A-DIMS
10
3660
20
1104
30
0
11
3660
21
1451
31
0
0
LINE
8
A-DIMS
10
3625
20
1104
30
0
11
3695
21
1104
31
0
0
LINE
8
A-DIMS
10
3625
20
1451
30
0
11
3695
21
1451
31
0
0
TEXT
8
A-DIMS
10
3702
20
1277.5
30
0
40
44
1
347
50
90
7
STANDARD
72
1
11
3702
21
1277.5
31
0
0
LINE
8
A-DIMS
10
3660
20
1451
30
0
11
3660
21
1871
31
0
0
LINE
8
A-DIMS
10
3625
20
1451
30
0
11
3695
21
1451
31
0
0
LINE
8
A-DIMS
10
3625
20
1871
30
0
11
3695
21
1871
31
0
0
TEXT
8
A-DIMS
10
3702
20
1661.0
30
0
40
44
1
420
50
90
7
STANDARD
72
1
11
3702
21
1661.0
31
0
0
LINE
8
A-DIMS
10
610
20
2050
30
0
11
1042
21
2050
31
0
0
LINE
8
A-DIMS
10
610
20
2015
30
0
11
610
21
2085
31
0
0
LINE
8
A-DIMS
10
1042
20
2015
30
0
11
1042
21
2085
31
0
0
TEXT
8
A-DIMS
10
826.0
20
2092
30
0
40
44
1
432
50
0.0
7
STANDARD
72
1
11
826.0
21
2092
31
0
0
LINE
8
A-DIMS
10
1042
20
2050
30
0
11
1389
21
2050
31
0
0
LINE
8
A-DIMS
10
1042
20
2015
30
0
11
1042
21
2085
31
0
0
LINE
8
A-DIMS
10
1389
20
2015
30
0
11
1389
21
2085
31
0
0
TEXT
8
A-DIMS
10
1215.5
20
2092
30
0
40
44
1
347
50
0.0
7
STANDARD
72
1
11
1215.5
21
2092
31
0
0
LINE
8
A-DIMS
10
1389
20
2050
30
0
11
2009
21
2050
31
0
0
LINE
8
A-DIMS
10
1389
20
2015
30
0
11
1389
21
2085
31
0
0
LINE
8
A-DIMS
10
2009
20
2015
30
0
11
2009
21
2085
31
0
0
TEXT
8
A-DIMS
10
1699.0
20
2092
30
0
40
44
1
620
50
0.0
7
STANDARD
72
1
11
1699.0
21
2092
31
0
0
ENDSEC
0
EOF
