0
SECTION
2
HEADER
9
$ACADVER
1
AC1009
9
$INSUNITS
70
4
0
ENDSEC
0
SECTION
2
TABLES
0
TABLE
2
LAYER
70
9
0
LAYER
2
SITE
70
0
62
7
6
CONTINUOUS
0
LAYER
2
WALLS
70
0
62
7
6
CONTINUOUS
0
LAYER
2
PARTITIONS
70
0
62
7
6
CONTINUOUS
0
LAYER
2
DOORS
70
0
62
7
6
CONTINUOUS
0
LAYER
2
WINDOWS
70
0
62
5
6
CONTINUOUS
0
LAYER
2
FIXTURES
70
0
62
7
6
CONTINUOUS
0
LAYER
2
HATCH
70
0
62
8
6
CONTINUOUS
0
LAYER
2
DIMENSIONS
70
0
62
7
6
CONTINUOUS
0
LAYER
2
TEXT
70
0
62
7
6
CONTINUOUS
0
ENDTAB
0
ENDSEC
0
SECTION
2
ENTITIES
0
LINE
8
SITE
10
0.000
20
0.000
30
0.0
11
4800.000
21
0.000
31
0.0
0
LINE
8
SITE
10
4800.000
20
0.000
30
0.0
11
4800.000
21
4600.000
31
0.0
0
LINE
8
SITE
10
4800.000
20
4600.000
30
0.0
11
0.000
21
4600.000
31
0.0
0
LINE
8
SITE
10
0.000
20
4600.000
30
0.0
11
0.000
21
0.000
31
0.0
0
LINE
8
HATCH
10
80.000
20
4400.000
30
0.0
11
200.000
21
4520.000
31
0.0
0
LINE
8
HATCH
10
80.000
20
4280.000
30
0.0
11
320.000
21
4520.000
31
0.0
0
LINE
8
HATCH
10
80.000
20
4160.000
30
0.0
11
440.000
21
4520.000
31
0.0
0
LINE
8
HATCH
10
80.000
20
4040.000
30
0.0
11
560.000
21
4520.000
31
0.0
0
LINE
8
HATCH
10
80.000
20
3920.000
30
0.0
11
680.000
21
4520.000
31
0.0
0
LINE
8
HATCH
10
80.000
20
3800.000
30
0.0
11
800.000
21
4520.000
31
0.0
0
LINE
8
HATCH
10
80.000
20
3680.000
30
0.0
11
920.000
21
4520.000
31
0.0
0
LINE
8
HATCH
10
80.000
20
3560.000
30
0.0
11
1040.000
21
4520.000
31
0.0
0
LINE
8
HATCH
10
80.000
20
3440.000
30
0.0
11
1160.000
21
4520.000
31
0.0
0
LINE
8
HATCH
10
80.000
20
3320.000
30
0.0
11
1280.000
21
4520.000
31
0.0
0
LINE
8
HATCH
10
80.000
20
3200.000
30
0.0
11
1400.000
21
4520.000
31
0.0
0
LINE
8
HATCH
10
80.000
20
3080.000
30
0.0
11
1520.000
21
4520.000
31
0.0
0
LINE
8
HATCH
10
80.000
20
2960.000
30
0.0
11
1640.000
21
4520.000
31
0.0
0
LINE
8
HATCH
10
80.000
20
2840.000
30
0.0
11
1760.000
21
4520.000
31
0.0
0
LINE
8
HATCH
10
80.000
20
2720.000
30
0.0
11
1880.000
21
4520.000
31
0.0
0
LINE
8
HATCH
10
80.000
20
2600.000
30
0.0
11
2000.000
21
4520.000
31
0.0
0
LINE
8
HATCH
10
80.000
20
2480.000
30
0.0
11
2120.000
21
4520.000
31
0.0
0
LINE
8
HATCH
10
80.000
20
2360.000
30
0.0
11
2240.000
21
4520.000
31
0.0
0
LINE
8
HATCH
10
80.000
20
2240.000
30
0.0
11
2360.000
21
4520.000
31
0.0
0
LINE
8
HATCH
10
80.000
20
2120.000
30
0.0
11
2480.000
21
4520.000
31
0.0
0
LINE
8
HATCH
10
80.000
20
2000.000
30
0.0
11
2600.000
21
4520.000
31
0.0
0
LINE
8
HATCH
10
80.000
20
1880.000
30
0.0
11
2720.000
21
4520.000
31
0.0
0
LINE
8
HATCH
10
80.000
20
1760.000
30
0.0
11
2840.000
21
4520.000
31
0.0
0
LINE
8
HATCH
10
80.000
20
1640.000
30
0.0
11
2960.000
21
4520.000
31
0.0
0
LINE
8
HATCH
10
80.000
20
1520.000
30
0.0
11
3080.000
21
4520.000
31
0.0
0
LINE
8
HATCH
10
80.000
20
1400.000
30
0.0
11
3200.000
21
4520.000
31
0.0
0
LINE
8
HATCH
10
80.000
20
1280.000
30
0.0
11
3320.000
21
4520.000
31
0.0
0
LINE
8
HATCH
10
80.000
20
1160.000
30
0.0
11
3440.000
21
4520.000
31
0.0
0
LINE
8
HATCH
10
80.000
20
1040.000
30
0.0
11
3560.000
21
4520.000
31
0.0
0
LINE
8
HATCH
10
80.000
20
920.000
30
0.0
11
3680.000
21
4520.000
31
0.0
0
LINE
8
HATCH
10
80.000
20
800.000
30
0.0
11
3800.000
21
4520.000
31
0.0
0
LINE
8
HATCH
10
80.000
20
680.000
30
0.0
11
3920.000
21
4520.000
31
0.0
0
LINE
8
HATCH
10
80.000
20
560.000
30
0.0
11
4040.000
21
4520.000
31
0.0
0
LINE
8
HATCH
10
80.000
20
440.000
30
0.0
11
4160.000
21
4520.000
31
0.0
0
LINE
8
HATCH
10
80.000
20
320.000
30
0.0
11
4280.000
21
4520.000
31
0.0
0
LINE
8
HATCH
10
80.000
20
200.000
30
0.0
11
4400.000
21
4520.000
31
0.0
0
LINE
8
HATCH
10
80.000
20
80.000
30
0.0
11
4520.000
21
4520.000
31
0.0
0
LINE
8
HATCH
10
200.000
20
80.000
30
0.0
11
4640.000
21
4520.000
31
0.0
0
LINE
8
HATCH
10
320.000
20
80.000
30
0.0
11
4720.000
21
4480.000
31
0.0
0
LINE
8
HATCH
10
440.000
20
80.000
30
0.0
11
4720.000
21
4360.000
31
0.0
0
LINE
8
HATCH
10
560.000
20
80.000
30
0.0
11
4720.000
21
4240.000
31
0.0
0
LINE
8
HATCH
10
680.000
20
80.000
30
0.0
11
4720.000
21
4120.000
31
0.0
0
LINE
8
HATCH
10
800.000
20
80.000
30
0.0
11
4720.000
21
4000.000
31
0.0
0
LINE
8
HATCH
10
920.000
20
80.000
30
0.0
11
4720.000
21
3880.000
31
0.0
0
LINE
8
HATCH
10
1040.000
20
80.000
30
0.0
11
4720.000
21
3760.000
31
0.0
0
LINE
8
HATCH
10
1160.000
20
80.000
30
0.0
11
4720.000
21
3640.000
31
0.0
0
LINE
8
HATCH
10
1280.000
20
80.000
30
0.0
11
4720.000
21
3520.000
31
0.0
0
LINE
8
HATCH
10
1400.000
20
80.000
30
0.0
11
4720.000
21
3400.000
31
0.0
0
LINE
8
HATCH
10
1520.000
20
80.000
30
0.0
11
4720.000
21
3280.000
31
0.0
0
LINE
8
HATCH
10
1640.000
20
80.000
30
0.0
11
4720.000
21
3160.000
31
0.0
0
LINE
8
HATCH
10
1760.000
20
80.000
30
0.0
11
4720.000
21
3040.000
31
0.0
0
LINE
8
HATCH
10
1880.000
20
80.000
30
0.0
11
4720.000
21
2920.000
31
0.0
0
LINE
8
HATCH
10
2000.000
20
80.000
30
0.0
11
4720.000
21
2800.000
31
0.0
0
LINE
8
HATCH
10
2120.000
20
80.000
30
0.0
11
4720.000
21
2680.000
31
0.0
0
LINE
8
HATCH
10
2240.000
20
80.000
30
0.0
11
4720.000
21
2560.000
31
0.0
0
LINE
8
HATCH
10
2360.000
20
80.000
30
0.0
11
4720.000
21
2440.000
31
0.0
0
LINE
8
HATCH
10
2480.000
20
80.000
30
0.0
11
4720.000
21
2320.000
31
0.0
0
LINE
8
HATCH
10
2600.000
20
80.000
30
0.0
11
4720.000
21
2200.000
31
0.0
0
LINE
8
HATCH
10
2720.000
20
80.000
30
0.0
11
4720.000
21
2080.000
31
0.0
0
LINE
8
HATCH
10
2840.000
20
80.000
30
0.0
11
4720.000
21
1960.000
31
0.0
0
LINE
8
HATCH
10
2960.000
20
80.000
30
0.0
11
4720.000
21
1840.000
31
0.0
0
LINE
8
HATCH
10
3080.000
20
80.000
30
0.0
11
4720.000
21
1720.000
31
0.0
0
LINE
8
HATCH
10
3200.000
20
80.000
30
0.0
11
4720.000
21
1600.000
31
0.0
0
LINE
8
HATCH
10
3320.000
20
80.000
30
0.0
11
4720.000
21
1480.000
31
0.0
0
LINE
8
HATCH
10
3440.000
20
80.000
30
0.0
11
4720.000
21
1360.000
31
0.0
0
LINE
8
HATCH
10
3560.000
20
80.000
30
0.0
11
4720.000
21
1240.000
31
0.0
0
LINE
8
HATCH
10
3680.000
20
80.000
30
0.0
11
4720.000
21
1120.000
31
0.0
0
LINE
8
HATCH
10
3800.000
20
80.000
30
0.0
11
4720.000
21
1000.000
31
0.0
0
LINE
8
HATCH
10
3920.000
20
80.000
30
0.0
11
4720.000
21
880.000
31
0.0
0
LINE
8
HATCH
10
4040.000
20
80.000
30
0.0
11
4720.000
21
760.000
31
0.0
0
LINE
8
HATCH
10
4160.000
20
80.000
30
0.0
11
4720.000
21
640.000
31
0.0
0
LINE
8
HATCH
10
4280.000
20
80.000
30
0.0
11
4720.000
21
520.000
31
0.0
0
LINE
8
HATCH
10
4400.000
20
80.000
30
0.0
11
4720.000
21
400.000
31
0.0
0
LINE
8
HATCH
10
4520.000
20
80.000
30
0.0
11
4720.000
21
280.000
31
0.0
0
LINE
8
HATCH
10
4640.000
20
80.000
30
0.0
11
4720.000
21
160.000
31
0.0
0
LINE
8
SITE
10
260.000
20
890.000
30
0.0
11
1730.000
21
890.000
31
0.0
0
LINE
8
SITE
10
1730.000
20
890.000
30
0.0
11
1730.000
21
3150.000
31
0.0
0
LINE
8
SITE
10
1730.000
20
3150.000
30
0.0
11
260.000
21
3150.000
31
0.0
0
LINE
8
SITE
10
260.000
20
3150.000
30
0.0
11
260.000
21
890.000
31
0.0
0
TEXT
8
TEXT
10
995.000
20
2040.000
30
0.0
40
90.000
1
OPEN COURT
50
0.000
7
STANDARD
72
1
73
2
11
995.000
21
2040.000
31
0.0
0
LINE
8
WALLS
10
2250.000
20
3400.000
30
0.0
11
3330.000
21
3400.000
31
0.0
0
LINE
8
WALLS
10
3330.000
20
3400.000
30
0.0
11
3330.000
21
4380.000
31
0.0
0
LINE
8
WALLS
10
3330.000
20
4380.000
30
0.0
11
2250.000
21
4380.000
31
0.0
0
LINE
8
WALLS
10
2250.000
20
4380.000
30
0.0
11
2250.000
21
3400.000
31
0.0
0
TEXT
8
TEXT
10
2790.000
20
3935.000
30
0.0
40
115.000
1
PARKING
50
90.000
7
STANDARD
72
1
73
2
11
2790.000
21
3935.000
31
0.0
0
TEXT
8
TEXT
10
2660.000
20
3935.000
30
0.0
40
115.000
1
STRUCTURE
50
90.000
7
STANDARD
72
1
73
2
11
2660.000
21
3935.000
31
0.0
0
LINE
8
WALLS
10
150.000
20
4050.000
30
0.0
11
650.000
21
4050.000
31
0.0
0
LINE
8
WALLS
10
650.000
20
4050.000
30
0.0
11
650.000
21
4550.000
31
0.0
0
LINE
8
WALLS
10
650.000
20
4550.000
30
0.0
11
150.000
21
4550.000
31
0.0
0
LINE
8
WALLS
10
150.000
20
4550.000
30
0.0
11
150.000
21
4050.000
31
0.0
0
TEXT
8
TEXT
10
400.000
20
4390.000
30
0.0
40
70.000
1
OUTSIDE
50
90.000
7
STANDARD
72
1
73
2
11
400.000
21
4390.000
31
0.0
0
TEXT
8
TEXT
10
400.000
20
4300.000
30
0.0
40
70.000
1
TOILET
50
90.000
7
STANDARD
72
1
73
2
11
400.000
21
4300.000
31
0.0
0
LINE
8
WALLS
10
650.000
20
3650.000
30
0.0
11
950.000
21
3650.000
31
0.0
0
LINE
8
WALLS
10
950.000
20
3650.000
30
0.0
11
950.000
21
4550.000
31
0.0
0
LINE
8
WALLS
10
950.000
20
4550.000
30
0.0
11
650.000
21
4550.000
31
0.0
0
LINE
8
WALLS
10
650.000
20
4550.000
30
0.0
11
650.000
21
3650.000
31
0.0
0
TEXT
8
TEXT
10
800.000
20
4100.000
30
0.0
40
70.000
1
WASHROOM
50
90.000
7
STANDARD
72
1
73
2
11
800.000
21
4100.000
31
0.0
0
LINE
8
WALLS
10
950.000
20
3650.000
30
0.0
11
1300.000
21
3650.000
31
0.0
0
LINE
8
WALLS
10
1300.000
20
3650.000
30
0.0
11
1300.000
21
4550.000
31
0.0
0
LINE
8
WALLS
10
1300.000
20
4550.000
30
0.0
11
950.000
21
4550.000
31
0.0
0
LINE
8
WALLS
10
950.000
20
4550.000
30
0.0
11
950.000
21
3650.000
31
0.0
0
TEXT
8
TEXT
10
1125.000
20
4100.000
30
0.0
40
70.000
1
BEDROOM
50
90.000
7
STANDARD
72
1
73
2
11
1125.000
21
4100.000
31
0.0
0
LINE
8
WALLS
10
1300.000
20
3650.000
30
0.0
11
1650.000
21
3650.000
31
0.0
0
LINE
8
WALLS
10
1650.000
20
3650.000
30
0.0
11
1650.000
21
4550.000
31
0.0
0
LINE
8
WALLS
10
1650.000
20
4550.000
30
0.0
11
1300.000
21
4550.000
31
0.0
0
LINE
8
WALLS
10
1300.000
20
4550.000
30
0.0
11
1300.000
21
3650.000
31
0.0
0
TEXT
8
TEXT
10
1475.000
20
4190.000
30
0.0
40
70.000
1
SITTING
50
90.000
7
STANDARD
72
1
73
2
11
1475.000
21
4190.000
31
0.0
0
TEXT
8
TEXT
10
1475.000
20
4100.000
30
0.0
40
70.000
1
ROOM
50
90.000
7
STANDARD
72
1
73
2
11
1475.000
21
4100.000
31
0.0
0
LINE
8
WALLS
10
1650.000
20
3650.000
30
0.0
11
2100.000
21
3650.000
31
0.0
0
LINE
8
WALLS
10
2100.000
20
3650.000
30
0.0
11
2100.000
21
4550.000
31
0.0
0
LINE
8
WALLS
10
2100.000
20
4550.000
30
0.0
11
1650.000
21
4550.000
31
0.0
0
LINE
8
WALLS
10
1650.000
20
4550.000
30
0.0
11
1650.000
21
3650.000
31
0.0
0
TEXT
8
TEXT
10
1875.000
20
4100.000
30
0.0
40
70.000
1
KITCHEN
50
90.000
7
STANDARD
72
1
73
2
11
1875.000
21
4100.000
31
0.0
0
LINE
8
DOORS
10
820.000
20
3650.000
30
0.0
11
610.000
21
3650.000
31
0.0
0
ARC
8
DOORS
10
820.000
20
3650.000
30
0.0
40
210.000
50
180.000
51
270.000
0
LINE
8
DOORS
10
1110.000
20
3650.000
30
0.0
11
900.000
21
3650.000
31
0.0
0
ARC
8
DOORS
10
1110.000
20
3650.000
30
0.0
40
210.000
50
180.000
51
270.000
0
LINE
8
DOORS
10
1460.000
20
3650.000
30
0.0
11
1250.000
21
3650.000
31
0.0
0
ARC
8
DOORS
10
1460.000
20
3650.000
30
0.0
40
210.000
50
180.000
51
270.000
0
LINE
8
DOORS
10
1850.000
20
3650.000
30
0.0
11
1640.000
21
3650.000
31
0.0
0
ARC
8
DOORS
10
1850.000
20
3650.000
30
0.0
40
210.000
50
180.000
51
270.000
0
LINE
8
WINDOWS
10
134.000
20
4200.000
30
0.0
11
134.000
21
4440.000
31
0.0
0
LINE
8
WINDOWS
10
166.000
20
4200.000
30
0.0
11
166.000
21
4440.000
31
0.0
0
LINE
8
WINDOWS
10
134.000
20
4200.000
30
0.0
11
166.000
21
4200.000
31
0.0
0
LINE
8
WINDOWS
10
134.000
20
4440.000
30
0.0
11
166.000
21
4440.000
31
0.0
0
LINE
8
WINDOWS
10
1680.000
20
2014.000
30
0.0
11
4550.000
21
2014.000
31
0.0
0
LINE
8
WINDOWS
10
1680.000
20
2046.000
30
0.0
11
4550.000
21
2046.000
31
0.0
0
LINE
8
WINDOWS
10
1680.000
20
2014.000
30
0.0
11
1680.000
21
2046.000
31
0.0
0
LINE
8
WINDOWS
10
4550.000
20
2014.000
30
0.0
11
4550.000
21
2046.000
31
0.0
0
LINE
8
WALLS
10
4300.000
20
4250.000
30
0.0
11
4750.000
21
4250.000
31
0.0
0
LINE
8
WALLS
10
4750.000
20
4250.000
30
0.0
11
4750.000
21
4550.000
31
0.0
0
LINE
8
WALLS
10
4750.000
20
4550.000
30
0.0
11
4300.000
21
4550.000
31
0.0
0
LINE
8
WALLS
10
4300.000
20
4550.000
30
0.0
11
4300.000
21
4250.000
31
0.0
0
TEXT
8
TEXT
10
4525.000
20
4435.000
30
0.0
40
65.000
1
SECURITY
50
0.000
7
STANDARD
72
1
73
2
11
4525.000
21
4435.000
31
0.0
0
TEXT
8
TEXT
10
4525.000
20
4350.000
30
0.0
40
65.000
1
HOUSE
50
0.000
7
STANDARD
72
1
73
2
11
4525.000
21
4350.000
31
0.0
0
LINE
8
SITE
10
4400.000
20
3450.000
30
0.0
11
4400.000
21
4250.000
31
0.0
0
LINE
8
DOORS
10
4400.000
20
3470.000
30
0.0
11
4720.000
21
3560.000
31
0.0
0
LINE
8
DOORS
10
4400.000
20
3585.000
30
0.0
11
4720.000
21
3675.000
31
0.0
0
LINE
8
DOORS
10
4400.000
20
3700.000
30
0.0
11
4720.000
21
3790.000
31
0.0
0
LINE
8
DOORS
10
4400.000
20
3815.000
30
0.0
11
4720.000
21
3905.000
31
0.0
0
LINE
8
DOORS
10
4400.000
20
3930.000
30
0.0
11
4720.000
21
4020.000
31
0.0
0
LINE
8
DOORS
10
4400.000
20
4045.000
30
0.0
11
4720.000
21
4135.000
31
0.0
0
LINE
8
DOORS
10
4400.000
20
4160.000
30
0.0
11
4720.000
21
4250.000
31
0.0
0
TEXT
8
TEXT
10
4585.000
20
3850.000
30
0.0
40
115.000
1
GATE
50
90.000
7
STANDARD
72
1
73
2
11
4585.000
21
3850.000
31
0.0
0
LINE
8
WALLS
10
1300.000
20
700.000
30
0.0
11
4050.000
21
700.000
31
0.0
0
LINE
8
WALLS
10
4050.000
20
700.000
30
0.0
11
4050.000
21
2200.000
31
0.0
0
LINE
8
WALLS
10
4050.000
20
2200.000
30
0.0
11
1300.000
21
2200.000
31
0.0
0
LINE
8
WALLS
10
1300.000
20
2200.000
30
0.0
11
1300.000
21
700.000
31
0.0
0
LINE
8
WALLS
10
2050.000
20
1700.000
30
0.0
11
3300.000
21
1700.000
31
0.0
0
LINE
8
WALLS
10
3300.000
20
1700.000
30
0.0
11
3300.000
21
2850.000
31
0.0
0
LINE
8
WALLS
10
3300.000
20
2850.000
30
0.0
11
2050.000
21
2850.000
31
0.0
0
LINE
8
WALLS
10
2050.000
20
2850.000
30
0.0
11
2050.000
21
1700.000
31
0.0
0
LINE
8
WALLS
10
2350.000
20
2650.000
30
0.0
11
4050.000
21
2650.000
31
0.0
0
LINE
8
WALLS
10
4050.000
20
2650.000
30
0.0
11
4050.000
21
3600.000
31
0.0
0
LINE
8
WALLS
10
4050.000
20
3600.000
30
0.0
11
2350.000
21
3600.000
31
0.0
0
LINE
8
WALLS
10
2350.000
20
3600.000
30
0.0
11
2350.000
21
2650.000
31
0.0
0
LINE
8
WALLS
10
3820.000
20
1900.000
30
0.0
11
4620.000
21
1900.000
31
0.0
0
LINE
8
WALLS
10
4620.000
20
1900.000
30
0.0
11
4620.000
21
2500.000
31
0.0
0
LINE
8
WALLS
10
4620.000
20
2500.000
30
0.0
11
3820.000
21
2500.000
31
0.0
0
LINE
8
WALLS
10
3820.000
20
2500.000
30
0.0
11
3820.000
21
1900.000
31
0.0
0
LINE
8
PARTITIONS
10
1850.000
20
700.000
30
0.0
11
1850.000
21
1700.000
31
0.0
0
LINE
8
PARTITIONS
10
2600.000
20
700.000
30
0.0
11
2600.000
21
1700.000
31
0.0
0
LINE
8
PARTITIONS
10
1300.000
20
1350.000
30
0.0
11
1850.000
21
1350.000
31
0.0
0
LINE
8
PARTITIONS
10
3450.000
20
700.000
30
0.0
11
3450.000
21
1200.000
31
0.0
0
LINE
8
PARTITIONS
10
2600.000
20
1200.000
30
0.0
11
4050.000
21
1200.000
31
0.0
0
LINE
8
PARTITIONS
10
3025.000
20
700.000
30
0.0
11
3025.000
21
1200.000
31
0.0
0
LINE
8
PARTITIONS
10
3300.000
20
1200.000
30
0.0
11
3300.000
21
2850.000
31
0.0
0
LINE
8
PARTITIONS
10
3300.000
20
2200.000
30
0.0
11
4050.000
21
2200.000
31
0.0
0
LINE
8
PARTITIONS
10
3100.000
20
2650.000
30
0.0
11
3100.000
21
3600.000
31
0.0
0
LINE
8
PARTITIONS
10
2350.000
20
2850.000
30
0.0
11
4050.000
21
2850.000
31
0.0
0
LINE
8
PARTITIONS
10
3400.000
20
2850.000
30
0.0
11
3400.000
21
3220.000
31
0.0
0
LINE
8
PARTITIONS
10
3820.000
20
1900.000
30
0.0
11
3820.000
21
2500.000
31
0.0
0
TEXT
8
TEXT
10
1575.000
20
995.000
30
0.0
40
85.000
1
LAUNDRY
50
90.000
7
STANDARD
72
1
73
2
11
1575.000
21
995.000
31
0.0
0
TEXT
8
TEXT
10
1575.000
20
1553.800
30
0.0
40
58.000
1
KITCHEN
50
90.000
7
STANDARD
72
1
73
2
11
1575.000
21
1553.800
31
0.0
0
TEXT
8
TEXT
10
1575.000
20
1490.000
30
0.0
40
58.000
1
STORE
50
90.000
7
STANDARD
72
1
73
2
11
1575.000
21
1490.000
31
0.0
0
TEXT
8
TEXT
10
2225.000
20
1180.000
30
0.0
40
90.000
1
KITCHEN
50
0.000
7
STANDARD
72
1
73
2
11
2225.000
21
1180.000
31
0.0
0
TEXT
8
TEXT
10
2650.000
20
2364.500
30
0.0
40
95.000
1
MAIN
50
90.000
7
STANDARD
72
1
73
2
11
2650.000
21
2364.500
31
0.0
0
TEXT
8
TEXT
10
2650.000
20
2260.000
30
0.0
40
95.000
1
HALL
50
90.000
7
STANDARD
72
1
73
2
11
2650.000
21
2260.000
31
0.0
0
TEXT
8
TEXT
10
3675.000
20
1690.000
30
0.0
40
100.000
1
RM 2
50
0.000
7
STANDARD
72
1
73
2
11
3675.000
21
1690.000
31
0.0
0
TEXT
8
TEXT
10
3750.000
20
965.000
30
0.0
40
90.000
1
RM 1
50
0.000
7
STANDARD
72
1
73
2
11
3750.000
21
965.000
31
0.0
0
TEXT
8
TEXT
10
2810.000
20
965.000
30
0.0
40
58.000
1
WASHROOM
50
90.000
7
STANDARD
72
1
73
2
11
2810.000
21
965.000
31
0.0
0
TEXT
8
TEXT
10
3235.000
20
965.000
30
0.0
40
58.000
1
WASHROOM
50
90.000
7
STANDARD
72
1
73
2
11
3235.000
21
965.000
31
0.0
0
TEXT
8
TEXT
10
2725.000
20
3205.000
30
0.0
40
95.000
1
RM 4
50
0.000
7
STANDARD
72
1
73
2
11
2725.000
21
3205.000
31
0.0
0
TEXT
8
TEXT
10
3720.000
20
3225.000
30
0.0
40
95.000
1
RM 3
50
0.000
7
STANDARD
72
1
73
2
11
3720.000
21
3225.000
31
0.0
0
TEXT
8
TEXT
10
2525.000
20
2745.000
30
0.0
40
58.000
1
WASHROOM
50
0.000
7
STANDARD
72
1
73
2
11
2525.000
21
2745.000
31
0.0
0
TEXT
8
TEXT
10
3250.000
20
3035.000
30
0.0
40
58.000
1
WASHROOM
50
90.000
7
STANDARD
72
1
73
2
11
3250.000
21
3035.000
31
0.0
0
TEXT
8
TEXT
10
3675.000
20
2400.000
30
0.0
40
75.000
1
PASSAGE
50
0.000
7
STANDARD
72
1
73
2
11
3675.000
21
2400.000
31
0.0
0
TEXT
8
TEXT
10
4060.000
20
2185.000
30
0.0
40
70.000
1
PASSAGE
50
90.000
7
STANDARD
72
1
73
2
11
4060.000
21
2185.000
31
0.0
0
TEXT
8
TEXT
10
4270.000
20
2322.000
30
0.0
40
70.000
1
MAIN
50
90.000
7
STANDARD
72
1
73
2
11
4270.000
21
2322.000
31
0.0
0
TEXT
8
TEXT
10
4270.000
20
2245.000
30
0.0
40
70.000
1
ENTRANCE
50
90.000
7
STANDARD
72
1
73
2
11
4270.000
21
2245.000
31
0.0
0
LINE
8
DOORS
10
1800.000
20
1350.000
30
0.0
11
1800.000
21
1610.000
31
0.0
0
ARC
8
DOORS
10
1800.000
20
1350.000
30
0.0
40
260.000
50
0.000
51
90.000
0
LINE
8
DOORS
10
1850.000
20
960.000
30
0.0
11
1850.000
21
1210.000
31
0.0
0
ARC
8
DOORS
10
1850.000
20
960.000
30
0.0
40
250.000
50
90.000
51
180.000
0
LINE
8
DOORS
10
2600.000
20
1520.000
30
0.0
11
2600.000
21
1780.000
31
0.0
0
ARC
8
DOORS
10
2600.000
20
1520.000
30
0.0
40
260.000
50
90.000
51
180.000
0
LINE
8
DOORS
10
3300.000
20
1880.000
30
0.0
11
3300.000
21
1580.000
31
0.0
0
ARC
8
DOORS
10
3300.000
20
1880.000
30
0.0
40
300.000
50
180.000
51
270.000
0
LINE
8
DOORS
10
3460.000
20
1200.000
30
0.0
11
3190.000
21
1200.000
31
0.0
0
ARC
8
DOORS
10
3460.000
20
1200.000
30
0.0
40
270.000
50
180.000
51
270.000
0
LINE
8
DOORS
10
3900.000
20
1200.000
30
0.0
11
3640.000
21
1200.000
31
0.0
0
ARC
8
DOORS
10
3900.000
20
1200.000
30
0.0
40
260.000
50
180.000
51
270.000
0
LINE
8
DOORS
10
3300.000
20
2520.000
30
0.0
11
3300.000
21
2800.000
31
0.0
0
ARC
8
DOORS
10
3300.000
20
2520.000
30
0.0
40
280.000
50
90.000
51
180.000
0
LINE
8
DOORS
10
3100.000
20
2890.000
30
0.0
11
3100.000
21
3140.000
31
0.0
0
ARC
8
DOORS
10
3100.000
20
2890.000
30
0.0
40
250.000
50
90.000
51
180.000
0
LINE
8
DOORS
10
2350.000
20
3000.000
30
0.0
11
2350.000
21
3260.000
31
0.0
0
ARC
8
DOORS
10
2350.000
20
3000.000
30
0.0
40
260.000
50
0.000
51
90.000
0
LINE
8
DOORS
10
3820.000
20
2200.000
30
0.0
11
3820.000
21
2470.000
31
0.0
0
ARC
8
DOORS
10
3820.000
20
2200.000
30
0.0
40
270.000
50
90.000
51
180.000
0
LINE
8
DOORS
10
4500.000
20
2200.000
30
0.0
11
4500.000
21
2520.000
31
0.0
0
ARC
8
DOORS
10
4500.000
20
2200.000
30
0.0
40
320.000
50
90.000
51
180.000
0
LINE
8
DOORS
10
1500.000
20
700.000
30
0.0
11
1500.000
21
980.000
31
0.0
0
ARC
8
DOORS
10
1500.000
20
700.000
30
0.0
40
280.000
50
0.000
51
90.000
0
LINE
8
DOORS
10
2060.000
20
700.000
30
0.0
11
2060.000
21
970.000
31
0.0
0
ARC
8
DOORS
10
2060.000
20
700.000
30
0.0
40
270.000
50
0.000
51
90.000
0
LINE
8
WINDOWS
10
3550.000
20
684.000
30
0.0
11
3900.000
21
684.000
31
0.0
0
LINE
8
WINDOWS
10
3550.000
20
716.000
30
0.0
11
3900.000
21
716.000
31
0.0
0
LINE
8
WINDOWS
10
3550.000
20
684.000
30
0.0
11
3550.000
21
716.000
31
0.0
0
LINE
8
WINDOWS
10
3900.000
20
684.000
30
0.0
11
3900.000
21
716.000
31
0.0
0
LINE
8
WINDOWS
10
2700.000
20
684.000
30
0.0
11
3020.000
21
684.000
31
0.0
0
LINE
8
WINDOWS
10
2700.000
20
716.000
30
0.0
11
3020.000
21
716.000
31
0.0
0
LINE
8
WINDOWS
10
2700.000
20
684.000
30
0.0
11
2700.000
21
716.000
31
0.0
0
LINE
8
WINDOWS
10
3020.000
20
684.000
30
0.0
11
3020.000
21
716.000
31
0.0
0
LINE
8
WINDOWS
10
2140.000
20
684.000
30
0.0
11
2470.000
21
684.000
31
0.0
0
LINE
8
WINDOWS
10
2140.000
20
716.000
30
0.0
11
2470.000
21
716.000
31
0.0
0
LINE
8
WINDOWS
10
2140.000
20
684.000
30
0.0
11
2140.000
21
716.000
31
0.0
0
LINE
8
WINDOWS
10
2470.000
20
684.000
30
0.0
11
2470.000
21
716.000
31
0.0
0
LINE
8
WINDOWS
10
2500.000
20
3584.000
30
0.0
11
2830.000
21
3584.000
31
0.0
0
LINE
8
WINDOWS
10
2500.000
20
3616.000
30
0.0
11
2830.000
21
3616.000
31
0.0
0
LINE
8
WINDOWS
10
2500.000
20
3584.000
30
0.0
11
2500.000
21
3616.000
31
0.0
0
LINE
8
WINDOWS
10
2830.000
20
3584.000
30
0.0
11
2830.000
21
3616.000
31
0.0
0
LINE
8
WINDOWS
10
3420.000
20
3584.000
30
0.0
11
3830.000
21
3584.000
31
0.0
0
LINE
8
WINDOWS
10
3420.000
20
3616.000
30
0.0
11
3830.000
21
3616.000
31
0.0
0
LINE
8
WINDOWS
10
3420.000
20
3584.000
30
0.0
11
3420.000
21
3616.000
31
0.0
0
LINE
8
WINDOWS
10
3830.000
20
3584.000
30
0.0
11
3830.000
21
3616.000
31
0.0
0
LINE
8
WINDOWS
10
4034.000
20
3050.000
30
0.0
11
4034.000
21
3380.000
31
0.0
0
LINE
8
WINDOWS
10
4066.000
20
3050.000
30
0.0
11
4066.000
21
3380.000
31
0.0
0
LINE
8
WINDOWS
10
4034.000
20
3050.000
30
0.0
11
4066.000
21
3050.000
31
0.0
0
LINE
8
WINDOWS
10
4034.000
20
3380.000
30
0.0
11
4066.000
21
3380.000
31
0.0
0
LINE
8
WINDOWS
10
4034.000
20
1450.000
30
0.0
11
4034.000
21
1780.000
31
0.0
0
LINE
8
WINDOWS
10
4066.000
20
1450.000
30
0.0
11
4066.000
21
1780.000
31
0.0
0
LINE
8
WINDOWS
10
4034.000
20
1450.000
30
0.0
11
4066.000
21
1450.000
31
0.0
0
LINE
8
WINDOWS
10
4034.000
20
1780.000
30
0.0
11
4066.000
21
1780.000
31
0.0
0
LINE
8
WINDOWS
10
1284.000
20
860.000
30
0.0
11
1284.000
21
1150.000
31
0.0
0
LINE
8
WINDOWS
10
1316.000
20
860.000
30
0.0
11
1316.000
21
1150.000
31
0.0
0
LINE
8
WINDOWS
10
1284.000
20
860.000
30
0.0
11
1316.000
21
860.000
31
0.0
0
LINE
8
WINDOWS
10
1284.000
20
1150.000
30
0.0
11
1316.000
21
1150.000
31
0.0
0
LINE
8
WINDOWS
10
1284.000
20
1740.000
30
0.0
11
1284.000
21
2040.000
31
0.0
0
LINE
8
WINDOWS
10
1316.000
20
1740.000
30
0.0
11
1316.000
21
2040.000
31
0.0
0
LINE
8
WINDOWS
10
1284.000
20
1740.000
30
0.0
11
1316.000
21
1740.000
31
0.0
0
LINE
8
WINDOWS
10
1284.000
20
2040.000
30
0.0
11
1316.000
21
2040.000
31
0.0
0
LINE
8
WINDOWS
10
1550.000
20
2184.000
30
0.0
11
2200.000
21
2184.000
31
0.0
0
LINE
8
WINDOWS
10
1550.000
20
2216.000
30
0.0
11
2200.000
21
2216.000
31
0.0
0
LINE
8
WINDOWS
10
1550.000
20
2184.000
30
0.0
11
1550.000
21
2216.000
31
0.0
0
LINE
8
WINDOWS
10
2200.000
20
2184.000
30
0.0
11
2200.000
21
2216.000
31
0.0
0
LINE
8
WINDOWS
10
4604.000
20
2040.000
30
0.0
11
4604.000
21
2360.000
31
0.0
0
LINE
8
WINDOWS
10
4636.000
20
2040.000
30
0.0
11
4636.000
21
2360.000
31
0.0
0
LINE
8
WINDOWS
10
4604.000
20
2040.000
30
0.0
11
4636.000
21
2040.000
31
0.0
0
LINE
8
WINDOWS
10
4604.000
20
2360.000
30
0.0
11
4636.000
21
2360.000
31
0.0
0
LINE
8
FIXTURES
10
2775.000
20
800.000
30
0.0
11
2885.000
21
800.000
31
0.0
0
LINE
8
FIXTURES
10
2885.000
20
800.000
30
0.0
11
2885.000
21
890.000
31
0.0
0
LINE
8
FIXTURES
10
2885.000
20
890.000
30
0.0
11
2775.000
21
890.000
31
0.0
0
LINE
8
FIXTURES
10
2775.000
20
890.000
30
0.0
11
2775.000
21
800.000
31
0.0
0
CIRCLE
8
FIXTURES
10
2830.000
20
780.000
30
0.0
40
42.000
0
LINE
8
FIXTURES
10
2755.000
20
1065.000
30
0.0
11
2925.000
21
1065.000
31
0.0
0
LINE
8
FIXTURES
10
2925.000
20
1065.000
30
0.0
11
2925.000
21
1155.000
31
0.0
0
LINE
8
FIXTURES
10
2925.000
20
1155.000
30
0.0
11
2755.000
21
1155.000
31
0.0
0
LINE
8
FIXTURES
10
2755.000
20
1155.000
30
0.0
11
2755.000
21
1065.000
31
0.0
0
CIRCLE
8
FIXTURES
10
2840.000
20
1110.000
30
0.0
40
20.000
0
LINE
8
FIXTURES
10
3205.000
20
800.000
30
0.0
11
3315.000
21
800.000
31
0.0
0
LINE
8
FIXTURES
10
3315.000
20
800.000
30
0.0
11
3315.000
21
890.000
31
0.0
0
LINE
8
FIXTURES
10
3315.000
20
890.000
30
0.0
11
3205.000
21
890.000
31
0.0
0
LINE
8
FIXTURES
10
3205.000
20
890.000
30
0.0
11
3205.000
21
800.000
31
0.0
0
CIRCLE
8
FIXTURES
10
3260.000
20
780.000
30
0.0
40
42.000
0
LINE
8
FIXTURES
10
3185.000
20
1065.000
30
0.0
11
3355.000
21
1065.000
31
0.0
0
LINE
8
FIXTURES
10
3355.000
20
1065.000
30
0.0
11
3355.000
21
1155.000
31
0.0
0
LINE
8
FIXTURES
10
3355.000
20
1155.000
30
0.0
11
3185.000
21
1155.000
31
0.0
0
LINE
8
FIXTURES
10
3185.000
20
1155.000
30
0.0
11
3185.000
21
1065.000
31
0.0
0
CIRCLE
8
FIXTURES
10
3270.000
20
1110.000
30
0.0
40
20.000
0
LINE
8
FIXTURES
10
3205.000
20
2910.000
30
0.0
11
3315.000
21
2910.000
31
0.0
0
LINE
8
FIXTURES
10
3315.000
20
2910.000
30
0.0
11
3315.000
21
3000.000
31
0.0
0
LINE
8
FIXTURES
10
3315.000
20
3000.000
30
0.0
11
3205.000
21
3000.000
31
0.0
0
LINE
8
FIXTURES
10
3205.000
20
3000.000
30
0.0
11
3205.000
21
2910.000
31
0.0
0
CIRCLE
8
FIXTURES
10
3260.000
20
2890.000
30
0.0
40
42.000
0
LINE
8
FIXTURES
10
3265.000
20
3075.000
30
0.0
11
3435.000
21
3075.000
31
0.0
0
LINE
8
FIXTURES
10
3435.000
20
3075.000
30
0.0
11
3435.000
21
3165.000
31
0.0
0
LINE
8
FIXTURES
10
3435.000
20
3165.000
30
0.0
11
3265.000
21
3165.000
31
0.0
0
LINE
8
FIXTURES
10
3265.000
20
3165.000
30
0.0
11
3265.000
21
3075.000
31
0.0
0
CIRCLE
8
FIXTURES
10
3350.000
20
3120.000
30
0.0
40
20.000
0
LINE
8
FIXTURES
10
2175.000
20
765.000
30
0.0
11
2345.000
21
765.000
31
0.0
0
LINE
8
FIXTURES
10
2345.000
20
765.000
30
0.0
11
2345.000
21
855.000
31
0.0
0
LINE
8
FIXTURES
10
2345.000
20
855.000
30
0.0
11
2175.000
21
855.000
31
0.0
0
LINE
8
FIXTURES
10
2175.000
20
855.000
30
0.0
11
2175.000
21
765.000
31
0.0
0
CIRCLE
8
FIXTURES
10
2260.000
20
810.000
30
0.0
40
20.000
0
LINE
8
FIXTURES
10
1655.000
20
715.000
30
0.0
11
1825.000
21
715.000
31
0.0
0
LINE
8
FIXTURES
10
1825.000
20
715.000
30
0.0
11
1825.000
21
805.000
31
0.0
0
LINE
8
FIXTURES
10
1825.000
20
805.000
30
0.0
11
1655.000
21
805.000
31
0.0
0
LINE
8
FIXTURES
10
1655.000
20
805.000
30
0.0
11
1655.000
21
715.000
31
0.0
0
CIRCLE
8
FIXTURES
10
1740.000
20
760.000
30
0.0
40
20.000
0
LINE
8
DIMENSIONS
10
0.000
20
-230.000
30
0.0
11
4800.000
21
-230.000
31
0.0
0
LINE
8
DIMENSIONS
10
0.000
20
-275.000
30
0.0
11
0.000
21
-185.000
31
0.0
0
LINE
8
DIMENSIONS
10
4800.000
20
-275.000
30
0.0
11
4800.000
21
-185.000
31
0.0
0
LINE
8
DIMENSIONS
10
-35.000
20
-265.000
30
0.0
11
35.000
21
-195.000
31
0.0
0
LINE
8
DIMENSIONS
10
4765.000
20
-265.000
30
0.0
11
4835.000
21
-195.000
31
0.0
0
TEXT
8
DIMENSIONS
10
2400.000
20
-175.000
30
0.0
40
70.000
1
4800
50
0.000
7
STANDARD
72
1
73
2
11
2400.000
21
-175.000
31
0.0
0
LINE
8
DIMENSIONS
10
-230.000
20
0.000
30
0.0
11
-230.000
21
4600.000
31
0.0
0
LINE
8
DIMENSIONS
10
-275.000
20
0.000
30
0.0
11
-185.000
21
0.000
31
0.0
0
LINE
8
DIMENSIONS
10
-275.000
20
4600.000
30
0.0
11
-185.000
21
4600.000
31
0.0
0
LINE
8
DIMENSIONS
10
-265.000
20
-35.000
30
0.0
11
-195.000
21
35.000
31
0.0
0
LINE
8
DIMENSIONS
10
-265.000
20
4565.000
30
0.0
11
-195.000
21
4635.000
31
0.0
0
TEXT
8
DIMENSIONS
10
-285.000
20
2300.000
30
0.0
40
70.000
1
4600
50
90.000
7
STANDARD
72
1
73
2
11
-285.000
21
2300.000
31
0.0
0
LINE
8
DIMENSIONS
10
1300.000
20
360.000
30
0.0
11
1650.000
21
360.000
31
0.0
0
LINE
8
DIMENSIONS
10
1300.000
20
315.000
30
0.0
11
1300.000
21
405.000
31
0.0
0
LINE
8
DIMENSIONS
10
1650.000
20
315.000
30
0.0
11
1650.000
21
405.000
31
0.0
0
LINE
8
DIMENSIONS
10
1265.000
20
325.000
30
0.0
11
1335.000
21
395.000
31
0.0
0
LINE
8
DIMENSIONS
10
1615.000
20
325.000
30
0.0
11
1685.000
21
395.000
31
0.0
0
TEXT
8
DIMENSIONS
10
1475.000
20
415.000
30
0.0
40
70.000
1
350
50
0.000
7
STANDARD
72
1
73
2
11
1475.000
21
415.000
31
0.0
0
LINE
8
DIMENSIONS
10
1650.000
20
360.000
30
0.0
11
1874.000
21
360.000
31
0.0
0
LINE
8
DIMENSIONS
10
1650.000
20
315.000
30
0.0
11
1650.000
21
405.000
31
0.0
0
LINE
8
DIMENSIONS
10
1874.000
20
315.000
30
0.0
11
1874.000
21
405.000
31
0.0
0
LINE
8
DIMENSIONS
10
1615.000
20
325.000
30
0.0
11
1685.000
21
395.000
31
0.0
0
LINE
8
DIMENSIONS
10
1839.000
20
325.000
30
0.0
11
1909.000
21
395.000
31
0.0
0
TEXT
8
DIMENSIONS
10
1762.000
20
415.000
30
0.0
40
70.000
1
224
50
0.000
7
STANDARD
72
1
73
2
11
1762.000
21
415.000
31
0.0
0
LINE
8
DIMENSIONS
10
1874.000
20
360.000
30
0.0
11
2274.000
21
360.000
31
0.0
0
LINE
8
DIMENSIONS
10
1874.000
20
315.000
30
0.0
11
1874.000
21
405.000
31
0.0
0
LINE
8
DIMENSIONS
10
2274.000
20
315.000
30
0.0
11
2274.000
21
405.000
31
0.0
0
LINE
8
DIMENSIONS
10
1839.000
20
325.000
30
0.0
11
1909.000
21
395.000
31
0.0
0
LINE
8
DIMENSIONS
10
2239.000
20
325.000
30
0.0
11
2309.000
21
395.000
31
0.0
0
TEXT
8
DIMENSIONS
10
2074.000
20
415.000
30
0.0
40
70.000
1
400
50
0.000
7
STANDARD
72
1
73
2
11
2074.000
21
415.000
31
0.0
0
LINE
8
DIMENSIONS
10
2274.000
20
360.000
30
0.0
11
2657.000
21
360.000
31
0.0
0
LINE
8
DIMENSIONS
10
2274.000
20
315.000
30
0.0
11
2274.000
21
405.000
31
0.0
0
LINE
8
DIMENSIONS
10
2657.000
20
315.000
30
0.0
11
2657.000
21
405.000
31
0.0
0
LINE
8
DIMENSIONS
10
2239.000
20
325.000
30
0.0
11
2309.000
21
395.000
31
0.0
0
LINE
8
DIMENSIONS
10
2622.000
20
325.000
30
0.0
11
2692.000
21
395.000
31
0.0
0
TEXT
8
DIMENSIONS
10
2465.500
20
415.000
30
0.0
40
70.000
1
383
50
0.000
7
STANDARD
72
1
73
2
11
2465.500
21
415.000
31
0.0
0
LINE
8
DIMENSIONS
10
260.000
20
3230.000
30
0.0
11
692.000
21
3230.000
31
0.0
0
LINE
8
DIMENSIONS
10
260.000
20
3185.000
30
0.0
11
260.000
21
3275.000
31
0.0
0
LINE
8
DIMENSIONS
10
692.000
20
3185.000
30
0.0
11
692.000
21
3275.000
31
0.0
0
LINE
8
DIMENSIONS
10
225.000
20
3195.000
30
0.0
11
295.000
21
3265.000
31
0.0
0
LINE
8
DIMENSIONS
10
657.000
20
3195.000
30
0.0
11
727.000
21
3265.000
31
0.0
0
TEXT
8
DIMENSIONS
10
476.000
20
3285.000
30
0.0
40
70.000
1
432
50
0.000
7
STANDARD
72
1
73
2
11
476.000
21
3285.000
31
0.0
0
LINE
8
DIMENSIONS
10
692.000
20
3230.000
30
0.0
11
1039.000
21
3230.000
31
0.0
0
LINE
8
DIMENSIONS
10
692.000
20
3185.000
30
0.0
11
692.000
21
3275.000
31
0.0
0
LINE
8
DIMENSIONS
10
1039.000
20
3185.000
30
0.0
11
1039.000
21
3275.000
31
0.0
0
LINE
8
DIMENSIONS
10
657.000
20
3195.000
30
0.0
11
727.000
21
3265.000
31
0.0
0
LINE
8
DIMENSIONS
10
1004.000
20
3195.000
30
0.0
11
1074.000
21
3265.000
31
0.0
0
TEXT
8
DIMENSIONS
10
865.500
20
3285.000
30
0.0
40
70.000
1
347
50
0.000
7
STANDARD
72
1
73
2
11
865.500
21
3285.000
31
0.0
0
LINE
8
DIMENSIONS
10
1039.000
20
3230.000
30
0.0
11
1659.000
21
3230.000
31
0.0
0
LINE
8
DIMENSIONS
10
1039.000
20
3185.000
30
0.0
11
1039.000
21
3275.000
31
0.0
0
LINE
8
DIMENSIONS
10
1659.000
20
3185.000
30
0.0
11
1659.000
21
3275.000
31
0.0
0
LINE
8
DIMENSIONS
10
1004.000
20
3195.000
30
0.0
11
1074.000
21
3265.000
31
0.0
0
LINE
8
DIMENSIONS
10
1624.000
20
3195.000
30
0.0
11
1694.000
21
3265.000
31
0.0
0
TEXT
8
DIMENSIONS
10
1349.000
20
3285.000
30
0.0
40
70.000
1
620
50
0.000
7
STANDARD
72
1
73
2
11
1349.000
21
3285.000
31
0.0
0
LINE
8
DIMENSIONS
10
5020.000
20
0.000
30
0.0
11
5020.000
21
260.000
31
0.0
0
LINE
8
DIMENSIONS
10
4975.000
20
0.000
30
0.0
11
5065.000
21
0.000
31
0.0
0
LINE
8
DIMENSIONS
10
4975.000
20
260.000
30
0.0
11
5065.000
21
260.000
31
0.0
0
LINE
8
DIMENSIONS
10
4985.000
20
-35.000
30
0.0
11
5055.000
21
35.000
31
0.0
0
LINE
8
DIMENSIONS
10
4985.000
20
225.000
30
0.0
11
5055.000
21
295.000
31
0.0
0
TEXT
8
DIMENSIONS
10
4965.000
20
130.000
30
0.0
40
70.000
1
260
50
90.000
7
STANDARD
72
1
73
2
11
4965.000
21
130.000
31
0.0
0
LINE
8
DIMENSIONS
10
5020.000
20
260.000
30
0.0
11
5020.000
21
624.000
31
0.0
0
LINE
8
DIMENSIONS
10
4975.000
20
260.000
30
0.0
11
5065.000
21
260.000
31
0.0
0
LINE
8
DIMENSIONS
10
4975.000
20
624.000
30
0.0
11
5065.000
21
624.000
31
0.0
0
LINE
8
DIMENSIONS
10
4985.000
20
225.000
30
0.0
11
5055.000
21
295.000
31
0.0
0
LINE
8
DIMENSIONS
10
4985.000
20
589.000
30
0.0
11
5055.000
21
659.000
31
0.0
0
TEXT
8
DIMENSIONS
10
4965.000
20
442.000
30
0.0
40
70.000
1
364
50
90.000
7
STANDARD
72
1
73
2
11
4965.000
21
442.000
31
0.0
0
LINE
8
DIMENSIONS
10
5020.000
20
624.000
30
0.0
11
5020.000
21
971.000
31
0.0
0
LINE
8
DIMENSIONS
10
4975.000
20
624.000
30
0.0
11
5065.000
21
624.000
31
0.0
0
LINE
8
DIMENSIONS
10
4975.000
20
971.000
30
0.0
11
5065.000
21
971.000
31
0.0
0
LINE
8
DIMENSIONS
10
4985.000
20
589.000
30
0.0
11
5055.000
21
659.000
31
0.0
0
LINE
8
DIMENSIONS
10
4985.000
20
936.000
30
0.0
11
5055.000
21
1006.000
31
0.0
0
TEXT
8
DIMENSIONS
10
4965.000
20
797.500
30
0.0
40
70.000
1
347
50
90.000
7
STANDARD
72
1
73
2
11
4965.000
21
797.500
31
0.0
0
LINE
8
DIMENSIONS
10
5020.000
20
971.000
30
0.0
11
5020.000
21
1391.000
31
0.0
0
LINE
8
DIMENSIONS
10
4975.000
20
971.000
30
0.0
11
5065.000
21
971.000
31
0.0
0
LINE
8
DIMENSIONS
10
4975.000
20
1391.000
30
0.0
11
5065.000
21
1391.000
31
0.0
0
LINE
8
DIMENSIONS
10
4985.000
20
936.000
30
0.0
11
5055.000
21
1006.000
31
0.0
0
LINE
8
DIMENSIONS
10
4985.000
20
1356.000
30
0.0
11
5055.000
21
1426.000
31
0.0
0
TEXT
8
DIMENSIONS
10
4965.000
20
1181.000
30
0.0
40
70.000
1
420
50
90.000
7
STANDARD
72
1
73
2
11
4965.000
21
1181.000
31
0.0
0
TEXT
8
TEXT
10
2400.000
20
-520.000
30
0.0
40
90.000
1
ARCHITECTURAL FLOOR PLAN FROM PROVIDED SKETCH
50
0.000
7
STANDARD
72
1
73
2
11
2400.000
21
-520.000
31
0.0
0
TEXT
8
TEXT
10
2400.000
20
-660.000
30
0.0
40
60.000
1
AutoCAD DXF | Units: millimetres | Scale reference from sketch dimensions
50
0.000
7
STANDARD
72
1
73
2
11
2400.000
21
-660.000
31
0.0
0
ENDSEC
0
EOF
